<?xml version="1.0" encoding="utf-8"?>
<!-- Generator: Adobe Illustrator 22.0.0, SVG Export Plug-In . SVG Version: 6.00 Build 0)  -->
<svg version="1.1" id="Capa_1" xmlns="http://www.w3.org/2000/svg" xmlns:xlink="http://www.w3.org/1999/xlink" x="0px" y="0px"
	 viewBox="0 0 512 448" style="enable-background:new 0 0 512 448;" xml:space="preserve">
<style type="text/css">
	.st0{fill:#FF5722;}
</style>
<path class="st0" d="M315.6,0c225.1,150.2,152.1,315.3,152.1,315.3S531.6,386,505.9,448c0,0-26.5-43.3-70.6-43.3
	c-42.6,0-67.7,43.3-153.7,43.3C90.6,448,0,291.4,0,291.4c172.2,111.4,289.9,32.4,289.9,32.4C212.1,279.7,47.2,68.6,47.2,68.6
	C191,188.6,253,220.1,253,220.1c-37.3-30-141.3-176.7-141.3-176.7C194.9,125.9,360.3,241,360.3,241C407.7,113.8,315.6,0,315.6,0z"/>
</svg>
